<svg xmlns="http://www.w3.org/2000/svg" viewBox="0 0 256 256">
  <rect width="256" height="256" fill="#1f2937"/>
  <path d="M60 70h28v90h40v26H60V70z" fill="#1e40af"/>
  <path d="M138 70h42c18 0 32 10 32 28 0 12-6 20-16 24l18 64h-30l-16-58h-2v58h-28V70zm28 48h8c8 0 14-4 14-12s-6-12-14-12h-8v24z" fill="#3b82f6"/>
  <path d="M60 70h28v90h40v26H60V70z" fill="#1e40af"/>
  <path d="M138 70h42c18 0 32 10 32 28 0 12-6 20-16 24l18 64h-30l-16-58h-2v58h-28V70zm28 48h8c8 0 14-4 14-12s-6-12-14-12h-8v24z" fill="#3b82f6"/>
  <path d="M60 186v-26h40v-90h-40V44h108c22 0 38 12 38 34 0 14-8 24-20 30 14 6 22 18 22 32 0 24-18 36-40 36H60zm68-26h10c10 0 18-6 18-16s-8-16-18-16h-10v32zm0-58h8c8 0 14-5 14-14s-6-14-14-14h-8v28z" fill="none"/>
  <rect x="60" y="70" width="28" height="116" fill="#1e40af"/>
  <rect x="88" y="160" width="40" height="26" fill="#1e40af"/>
  <path d="M138 70h42c18 0 32 10 32 28 0 12-6 20-16 24l18 64h-30l-16-58h-2v58h-28V70zm28 26v22h8c8 0 14-4 14-12s-6-12-14-12h-8z" fill="#3b82f6"/>
</svg>